<?xml version="1.0" standalone="no"?><!DOCTYPE svg PUBLIC "-//W3C//DTD SVG 1.1//EN" "http://www.w3.org/Graphics/SVG/1.1/DTD/svg11.dtd"><svg t="1537238107749" class="icon" style="" viewBox="0 0 1024 1024" version="1.1" xmlns="http://www.w3.org/2000/svg" p-id="13487" xmlns:xlink="http://www.w3.org/1999/xlink" width="200" height="200"><defs><style type="text/css"></style></defs><path d="M170.801067 256C158.961067 256 149.339733 265.621333 149.339733 277.44L149.339733 754.858667C149.339733 766.869333 158.769067 776.298667 170.801067 776.298667L850.8224 776.298667C862.6624 776.298667 872.283733 766.677333 872.283733 754.858667L872.283733 277.44C872.283733 265.408 862.875733 256 850.8224 256L170.801067 256ZM850.8224 818.965333 170.801067 818.965333C135.4304 818.965333 106.673067 790.208 106.673067 754.858667L106.673067 277.44C106.673067 242.090667 135.4304 213.333333 170.801067 213.333333L850.8224 213.333333C886.193067 213.333333 914.9504 242.090667 914.9504 277.44L914.9504 754.858667C914.9504 790.208 886.193067 818.965333 850.8224 818.965333L850.8224 818.965333Z" p-id="13488" fill="#ffffff"></path><path d="M510.811733 610.5728C491.953067 610.5728 473.0944 604.663467 457.371733 592.802133L109.595733 331.0848 135.2384 297.015467 483.0144 558.711467C499.3984 571.0208 522.2464 571.0208 538.587733 558.711467L886.4064 296.9728 912.091733 331.042133 564.251733 592.802133C548.529067 604.663467 529.6704 610.5728 510.811733 610.5728" p-id="13489" fill="#ffffff"></path></svg>